{
  "accessors": [
    {
      "bufferView": 2,
      "componentType": 5126,
      "count": 15194,
      "max": [
        1.7338767051696777,
        9.093707084655762,
        2.1497251987457275
      ],
      "min": [
        -1.7338767051696777,
        1.752715826034546,
        -0.0736844539642334
      ],
      "type": "VEC3"
    },
    {
      "bufferView": 2,
      "byteOffset": 182328,
      "componentType": 5126,
      "count": 15194,
      "max": [
        0.9997782707214355,
        0.9265573024749756,
        0.9997959136962891
      ],
      "min": [
        -0.9997782707214355,
        -0.966877281665802,
        -0.9987803101539612
      ],
      "type": "VEC3"
    },
    {
      "bufferView": 1,
      "componentType": 5126,
      "count": 15194,
      "max": [
        0.6741617321968079,
        0.6756511926651001
      ],
      "min": [
        0.3028690218925476,
        0.26139724254608154
      ],
      "type": "VEC2"
    },
    {
      "bufferView": 0,
      "componentType": 5125,
      "count": 91152,
      "type": "SCALAR"
    },
    {
      "bufferView": 2,
      "byteOffset": 364656,
      "componentType": 5126,
      "count": 3088,
      "max": [
        0.6293222904205322,
        2.9934067726135254,
        0.8634267449378967
      ],
      "min": [
        -0.6294357776641846,
        0.5003033876419067,
        0.35014909505844116
      ],
      "type": "VEC3"
    },
    {
      "bufferView": 2,
      "byteOffset": 401712,
      "componentType": 5126,
      "count": 3088,
      "max": [
        0.9918681383132935,
        0.9995272159576416,
        0.9998390674591064
      ],
      "min": [
        -0.9936820268630981,
        -0.7098113298416138,
        -0.9998105764389038
      ],
      "type": "VEC3"
    },
    {
      "bufferView": 0,
      "byteOffset": 364608,
      "componentType": 5125,
      "count": 18528,
      "type": "SCALAR"
    },
    {
      "bufferView": 2,
      "byteOffset": 438768,
      "componentType": 5126,
      "count": 17356,
      "max": [
        1.349778413772583,
        3.155104875564575,
        0.07970544695854187
      ],
      "min": [
        -1.349778413772583,
        0.27534186840057373,
        -1.42083740234375
      ],
      "type": "VEC3"
    },
    {
      "bufferView": 2,
      "byteOffset": 647040,
      "componentType": 5126,
      "count": 17356,
      "max": [
        0.998149573802948,
        0.9998506307601929,
        0.9999171495437622
      ],
      "min": [
        -0.998149573802948,
        -0.9996904134750366,
        -0.9999109506607056
      ],
      "type": "VEC3"
    },
    {
      "bufferView": 0,
      "byteOffset": 438720,
      "componentType": 5125,
      "count": 104064,
      "type": "SCALAR"
    },
    {
      "bufferView": 2,
      "byteOffset": 855312,
      "componentType": 5126,
      "count": 1556,
      "max": [
        0.38793396949768066,
        3.9828896522521973,
        0.39556753635406494
      ],
      "min": [
        -0.38788747787475586,
        2.211777925491333,
        -0.42626893520355225
      ],
      "type": "VEC3"
    },
    {
      "bufferView": 2,
      "byteOffset": 873984,
      "componentType": 5126,
      "count": 1556,
      "max": [
        0.9997237920761108,
        0.9947114586830139,
        0.9982641339302063
      ],
      "min": [
        -0.9999035596847534,
        -0.9998294115066528,
        -0.9987242817878723
      ],
      "type": "VEC3"
    },
    {
      "bufferView": 1,
      "byteOffset": 121552,
      "componentType": 5126,
      "count": 1556,
      "max": [
        1.1439204216003418,
        0.9141954183578491
      ],
      "min": [
        0.020226649940013885,
        0.05137886106967926
      ],
      "type": "VEC2"
    },
    {
      "bufferView": 0,
      "byteOffset": 854976,
      "componentType": 5125,
      "count": 9072,
      "type": "SCALAR"
    },
    {
      "bufferView": 2,
      "byteOffset": 892656,
      "componentType": 5126,
      "count": 964,
      "max": [
        0.410999596118927,
        0.12996378540992737,
        0.2029932290315628
      ],
      "min": [
        -0.410999596118927,
        -0.3002728819847107,
        -0.2272435575723648
      ],
      "type": "VEC3"
    },
    {
      "bufferView": 2,
      "byteOffset": 904224,
      "componentType": 5126,
      "count": 964,
      "max": [
        1.0,
        1.0,
        1.0
      ],
      "min": [
        -1.0,
        -1.0,
        -1.0
      ],
      "type": "VEC3"
    },
    {
      "bufferView": 0,
      "byteOffset": 891264,
      "componentType": 5125,
      "count": 5760,
      "type": "SCALAR"
    },
    {
      "bufferView": 2,
      "byteOffset": 915792,
      "componentType": 5126,
      "count": 65532,
      "max": [
        1.0771193504333496,
        7.594208717346191,
        1.0489258766174316
      ],
      "min": [
        -1.0763893127441406,
        -1.1247200965881348,
        -0.8490948677062988
      ],
      "type": "VEC3"
    },
    {
      "bufferView": 2,
      "byteOffset": 1702176,
      "componentType": 5126,
      "count": 65532,
      "max": [
        0.9999960660934448,
        0.9964839816093445,
        0.9999936819076538
      ],
      "min": [
        -0.9999961853027344,
        -0.9811698198318481,
        -0.9999758005142212
      ],
      "type": "VEC3"
    },
    {
      "bufferView": 1,
      "byteOffset": 134000,
      "componentType": 5126,
      "count": 65532,
      "max": [
        1.1137334108352661,
        0.9900785684585571
      ],
      "min": [
        0.00015872716903686523,
        0.0026445984840393066
      ],
      "type": "VEC2"
    },
    {
      "bufferView": 0,
      "byteOffset": 914304,
      "componentType": 5125,
      "count": 356154,
      "type": "SCALAR"
    },
    {
      "bufferView": 2,
      "byteOffset": 2488560,
      "componentType": 5126,
      "count": 65533,
      "max": [
        1.061760425567627,
        9.294513702392578,
        1.92734956741333
      ],
      "min": [
        -0.8735666275024414,
        -1.1103341579437256,
        -0.8505644798278809
      ],
      "type": "VEC3"
    },
    {
      "bufferView": 2,
      "byteOffset": 3274956,
      "componentType": 5126,
      "count": 65533,
      "max": [
        0.9996765851974487,
        0.9992431402206421,
        0.9999936819076538
      ],
      "min": [
        -0.9999868869781494,
        -0.9998308420181274,
        -0.9999885559082031
      ],
      "type": "VEC3"
    },
    {
      "bufferView": 1,
      "byteOffset": 658256,
      "componentType": 5126,
      "count": 65533,
      "max": [
        0.9739351272583008,
        0.9775977730751038
      ],
      "min": [
        0.09295186400413513,
        0.03660464286804199
      ],
      "type": "VEC2"
    },
    {
      "bufferView": 0,
      "byteOffset": 2338920,
      "componentType": 5125,
      "count": 348660,
      "type": "SCALAR"
    },
    {
      "bufferView": 2,
      "byteOffset": 4061352,
      "componentType": 5126,
      "count": 16903,
      "max": [
        0.8655366897583008,
        9.260607719421387,
        1.7378549575805664
      ],
      "min": [
        -1.0701923370361328,
        -1.1247200965881348,
        -0.8269500732421875
      ],
      "type": "VEC3"
    },
    {
      "bufferView": 2,
      "byteOffset": 4264188,
      "componentType": 5126,
      "count": 16903,
      "max": [
        0.9994422197341919,
        0.9968766570091248,
        0.9998047351837158
      ],
      "min": [
        -0.999929666519165,
        -0.9830474853515625,
        -0.999842643737793
      ],
      "type": "VEC3"
    },
    {
      "bufferView": 1,
      "byteOffset": 1182520,
      "componentType": 5126,
      "count": 16903,
      "max": [
        1.3198081254959106,
        0.9925370216369629
      ],
      "min": [
        0.0029699206352233887,
        0.0076563358306884766
      ],
      "type": "VEC2"
    },
    {
      "bufferView": 0,
      "byteOffset": 3733560,
      "componentType": 5125,
      "count": 51702,
      "type": "SCALAR"
    },
    {
      "bufferView": 3,
      "componentType": 5126,
      "count": 3949,
      "max": [
        104.125
      ],
      "min": [
        0.0
      ],
      "type": "SCALAR"
    },
    {
      "bufferView": 4,
      "componentType": 5126,
      "count": 3949,
      "max": [
        0.49996325373649597,
        0.7071067690849304,
        0.7071067690849304,
        0.7071067690849304
      ],
      "min": [
        -0.7071067690849304,
        -0.499658465385437,
        -0.499658465385437,
        -0.4999632239341736
      ],
      "type": "VEC4"
    }
  ],
  "animations": [
    {
      "channels": [
        {
          "sampler": 0,
          "target": {
            "node": 18,
            "path": "rotation"
          }
        }
      ],
      "name": "Empty|EmptyAction",
      "samplers": [
        {
          "input": 29,
          "interpolation": "LINEAR",
          "output": 30
        }
      ]
    }
  ],
  "asset": {
    "extras": {
      "author": "mfhscoobydoo (https://sketchfab.com/mfhscoobydoo)",
      "license": "CC-BY-4.0 (http://creativecommons.org/licenses/by/4.0/)",
      "source": "https://sketchfab.com/3d-models/firefly-sculpt-sculpt-acddb6a852e246ab97b76610eecb43f9",
      "title": "Firefly Sculpt Sculpt"
    },
    "generator": "Sketchfab-12.64.0",
    "version": "2.0"
  },
  "bufferViews": [
    {
      "buffer": 0,
      "byteLength": 3940368,
      "name": "floatBufferViews",
      "target": 34963
    },
    {
      "buffer": 0,
      "byteLength": 1317744,
      "byteOffset": 3940368,
      "byteStride": 8,
      "name": "floatBufferViews",
      "target": 34962
    },
    {
      "buffer": 0,
      "byteLength": 4467024,
      "byteOffset": 5258112,
      "byteStride": 12,
      "name": "floatBufferViews",
      "target": 34962
    },
    {
      "buffer": 0,
      "byteLength": 15796,
      "byteOffset": 9725136,
      "name": "floatBufferViews"
    },
    {
      "buffer": 0,
      "byteLength": 63184,
      "byteOffset": 9740932,
      "byteStride": 16,
      "name": "floatBufferViews"
    }
  ],
  "buffers": [
    {
      "byteLength": 9804116,
      "uri": "scene.bin"
    }
  ],
  "images": [
    {
      "uri": "textures/Material.003_baseColor.png"
    },
    {
      "uri": "textures/Material.001_baseColor.png"
    }
  ],
  "materials": [
    {
      "doubleSided": true,
      "name": "Material",
      "pbrMetallicRoughness": {
        "baseColorFactor": [
          0.007149217809741786,
          0.0008455802037975592,
          0.0008455802037975592,
          1.0
        ],
        "metallicFactor": 0.0,
        "roughnessFactor": 0.733422256097561
      }
    },
    {
      "doubleSided": true,
      "name": "Material.002",
      "pbrMetallicRoughness": {
        "baseColorFactor": [
          0.006072930432828698,
          0.0018999873643866826,
          0.0006061506837258474,
          1.0
        ],
        "metallicFactor": 0.0,
        "roughnessFactor": 0.8431783536585366
      }
    },
    {
      "doubleSided": true,
      "emissiveFactor": [
        1.0,
        0.44370555811989876,
        0.0
      ],
      "name": "Material.003",
      "pbrMetallicRoughness": {
        "baseColorTexture": {
          "index": 0
        },
        "metallicFactor": 0.0,
        "roughnessFactor": 0.9577051494623774
      }
    },
    {
      "doubleSided": true,
      "name": "Material.001",
      "pbrMetallicRoughness": {
        "baseColorTexture": {
          "index": 1
        },
        "metallicFactor": 0.0,
        "roughnessFactor": 0.9577051494623774
      }
    }
  ],
  "meshes": [
    {
      "name": "Extracted.Cube.000_Material_0",
      "primitives": [
        {
          "attributes": {
            "NORMAL": 1,
            "POSITION": 0,
            "TEXCOORD_0": 2
          },
          "indices": 3,
          "material": 0,
          "mode": 4
        }
      ]
    },
    {
      "name": "Extracted.Cube.002_Material.002_0",
      "primitives": [
        {
          "attributes": {
            "NORMAL": 5,
            "POSITION": 4
          },
          "indices": 6,
          "material": 1,
          "mode": 4
        }
      ]
    },
    {
      "name": "Plane_Material.002_0",
      "primitives": [
        {
          "attributes": {
            "NORMAL": 8,
            "POSITION": 7
          },
          "indices": 9,
          "material": 1,
          "mode": 4
        }
      ]
    },
    {
      "name": "Cube.001_Material.003_0",
      "primitives": [
        {
          "attributes": {
            "NORMAL": 11,
            "POSITION": 10,
            "TEXCOORD_0": 12
          },
          "indices": 13,
          "material": 2,
          "mode": 4
        }
      ]
    },
    {
      "name": "Sphere_Material_0",
      "primitives": [
        {
          "attributes": {
            "NORMAL": 15,
            "POSITION": 14
          },
          "indices": 16,
          "material": 0,
          "mode": 4
        }
      ]
    },
    {
      "name": "Cube_Material.001_0",
      "primitives": [
        {
          "attributes": {
            "NORMAL": 18,
            "POSITION": 17,
            "TEXCOORD_0": 19
          },
          "indices": 20,
          "material": 3,
          "mode": 4
        }
      ]
    },
    {
      "name": "Cube_Material.001_0",
      "primitives": [
        {
          "attributes": {
            "NORMAL": 22,
            "POSITION": 21,
            "TEXCOORD_0": 23
          },
          "indices": 24,
          "material": 3,
          "mode": 4
        }
      ]
    },
    {
      "name": "Cube_Material.001_0",
      "primitives": [
        {
          "attributes": {
            "NORMAL": 26,
            "POSITION": 25,
            "TEXCOORD_0": 27
          },
          "indices": 28,
          "material": 3,
          "mode": 4
        }
      ]
    }
  ],
  "nodes": [
    {
      "children": [
        1
      ],
      "matrix": [
        0.003733903169631958,
        0.0,
        0.0,
        0.0,
        0.0,
        8.290930541292503e-19,
        -0.003733903169631958,
        0.0,
        0.0,
        0.003733903169631958,
        8.290930541292503e-19,
        0.0,
        0.0,
        0.0,
        0.0,
        1.0
      ],
      "name": "Sketchfab_model"
    },
    {
      "children": [
        2
      ],
      "matrix": [
        1.0,
        0.0,
        0.0,
        0.0,
        0.0,
        0.0,
        1.0,
        0.0,
        0.0,
        -1.0,
        0.0,
        0.0,
        0.0,
        0.0,
        0.0,
        1.0
      ],
      "name": "Sculpt.fbx"
    },
    {
      "children": [
        3
      ],
      "name": "Object_2"
    },
    {
      "children": [
        4,
        6,
        8,
        10,
        12,
        14,
        18
      ],
      "name": "RootNode"
    },
    {
      "children": [
        5
      ],
      "name": "Extracted.Cube.000",
      "rotation": [
        -0.7071068286895752,
        0.0,
        0.0,
        0.7071067094802856
      ],
      "scale": [
        42.77667236328125,
        42.77667236328125,
        42.77667236328125
      ]
    },
    {
      "mesh": 0,
      "name": "Extracted.Cube.000_Material_0"
    },
    {
      "children": [
        7
      ],
      "name": "Extracted.Cube.002",
      "rotation": [
        -0.7071068286895752,
        0.0,
        0.0,
        0.7071067094802856
      ],
      "scale": [
        42.77667236328125,
        42.77667236328125,
        42.77667236328125
      ]
    },
    {
      "mesh": 1,
      "name": "Extracted.Cube.002_Material.002_0"
    },
    {
      "children": [
        9
      ],
      "name": "Plane",
      "rotation": [
        -0.7071068286895752,
        0.0,
        0.0,
        0.7071067094802856
      ],
      "scale": [
        100.0,
        100.0,
        100.0
      ]
    },
    {
      "mesh": 2,
      "name": "Plane_Material.002_0"
    },
    {
      "children": [
        11
      ],
      "name": "Cube.001",
      "rotation": [
        -0.7071068286895752,
        0.0,
        0.0,
        0.7071067094802856
      ],
      "scale": [
        100.0,
        100.0,
        100.0
      ]
    },
    {
      "mesh": 3,
      "name": "Cube.001_Material.003_0"
    },
    {
      "children": [
        13
      ],
      "name": "Sphere",
      "rotation": [
        -0.7071068286895752,
        0.0,
        0.0,
        0.7071067094802856
      ],
      "scale": [
        100.0,
        100.0,
        100.0
      ]
    },
    {
      "mesh": 4,
      "name": "Sphere_Material_0"
    },
    {
      "children": [
        15,
        16,
        17
      ],
      "name": "Cube",
      "rotation": [
        -0.7071068286895752,
        0.0,
        0.0,
        0.7071067094802856
      ],
      "scale": [
        42.77667236328125,
        42.77667236328125,
        42.77667236328125
      ]
    },
    {
      "mesh": 5,
      "name": "Cube_Material.001_0"
    },
    {
      "mesh": 6,
      "name": "Cube_Material.001_0"
    },
    {
      "mesh": 7,
      "name": "Cube_Material.001_0"
    },
    {
      "children": [
        19
      ],
      "name": "Empty",
      "rotation": [
        -0.6258296370506287,
        -0.32914644479751587,
        -0.32914644479751587,
        0.6258295774459839
      ],
      "scale": [
        100.0,
        100.0,
        100.0
      ]
    },
    {
      "children": [
        20
      ],
      "name": "Camera",
      "rotation": [
        -0.4130778908729553,
        0.5723327398300171,
        0.6762606501579285,
        -0.2108876258134842
      ],
      "scale": [
        0.9999999403953552,
        0.9999999403953552,
        1.0
      ],
      "translation": [
        7.95778751373291,
        10.139246940612793,
        4.765620231628418
      ]
    },
    {
      "name": "Object_20"
    }
  ],
  "samplers": [
    {
      "magFilter": 9729,
      "minFilter": 9987,
      "wrapS": 10497,
      "wrapT": 10497
    }
  ],
  "scene": 0,
  "scenes": [
    {
      "name": "Sketchfab_Scene",
      "nodes": [
        0
      ]
    }
  ],
  "textures": [
    {
      "sampler": 0,
      "source": 0
    },
    {
      "sampler": 0,
      "source": 1
    }
  ]
}
